PathFileType	4	(X/Y/Z)	s03c0201.trc
DataRate	CameraRate	NumFrames	NumMarkers	Units	OrigDataRate	OrigDataStartFrame	OrigNumFrames
200	200	4	52	mm	200	500	2000
Frame#	Time	racr			lacr			c7			jug			rlel			rdr			llel			ldr			s2			lic			ric			lasi			rasi			rpsi			lpsi			rgt			lgt			rth1			rth2			rth3			rth4			rlfc			rmfc			rsh1			rsh2			rsh3			rsh4			rlmal			rmmal			rcal			rtoe			rmt5			rmt1			lth1			lth2			lth4			lth3			llfc			lmfc			lsh1			lsh2			lsh3			lsh4			llmal			lmmal			lcal			ltoe			lmt1			lmt5			SBIKE			LBIKE			RBIKE			
		X1	Y1	Z1	X2	Y2	Z2	X3	Y3	Z3	X4	Y4	Z4	X5	Y5	Z5	X6	Y6	Z6	X7	Y7	Z7	X8	Y8	Z8	X9	Y9	Z9	X10	Y10	Z10	X11	Y11	Z11	X12	Y12	Z12	X13	Y13	Z13	X14	Y14	Z14	X15	Y15	Z15	X16	Y16	Z16	X17	Y17	Z17	X18	Y18	Z18	X19	Y19	Z19	X20	Y20	Z20	X21	Y21	Z21	X22	Y22	Z22	X23	Y23	Z23	X24	Y24	Z24	X25	Y25	Z25	X26	Y26	Z26	X27	Y27	Z27	X28	Y28	Z28	X29	Y29	Z29	X30	Y30	Z30	X31	Y31	Z31	X32	Y32	Z32	X33	Y33	Z33	X34	Y34	Z34	X35	Y35	Z35	X36	Y36	Z36	X37	Y37	Z37	X38	Y38	Z38	X39	Y39	Z39	X40	Y40	Z40	X41	Y41	Z41	X42	Y42	Z42	X43	Y43	Z43	X44	Y44	Z44	X45	Y45	Z45	X46	Y46	Z46	X47	Y47	Z47	X48	Y48	Z48	X49	Y49	Z49	X50	Y50	Z50	X51	Y51	Z51	X52	Y52	Z52	
500	2.5000	543.725879	1376.383606	-145.938395	447.675132	1400.882519	-428.777961	420.488815	1461.225185	-267.890378	446.925636	1289.518014	-280.355665	548.066177	1176.926677	68.928455	734.466999	992.798814	-26.829792	487.813000	1144.431498	-538.332341	727.480365	982.969646	-425.920586	-118.580328	1220.619174	-193.842068	39.026196	1255.514827	-374.402704	69.159084	1226.226323	-16.496246	63.553848	1185.146591	-345.665768	79.121896	1158.625945	-61.367444	-82.920753	1263.879815	-139.215851	-84.019725	1272.358786	-220.491259	-7.077731	1114.961371	-6.353519	-2.408519	1167.051775	-406.303103	103.361836	994.023566	-7.796671	185.886919	961.595811	-13.907858	240.223126	896.266588	-25.189925	206.373833	990.320905	-24.009784	319.040438	796.881555	-60.999098	309.220562	785.342904	-183.161816	232.695128	653.365600	-35.945504	200.681885	572.608705	-54.672374	133.145648	515.301561	-53.510104	225.973846	560.916268	-81.015590	46.565280	418.595546	-73.355212	72.740125	415.727829	-155.881975	-25.230887	415.109733	-108.809218	212.278563	212.197981	-120.750502	113.718308	275.206305	-49.342243	148.775977	265.412875	-157.687527	118.444414	1061.054489	-430.470537	197.950488	1027.221979	-430.174118	219.715693	1054.701033	-418.655667	251.591631	955.635611	-426.878442	363.855801	878.604398	-407.588899	361.653894	859.750269	-285.133548	318.912588	711.840115	-440.525361	321.149766	628.001995	-425.084231	279.602126	547.244788	-426.191699	349.258142	622.427844	-397.714219	247.242711	421.081340	-414.732771	268.756364	440.503332	-317.502646	192.880293	350.520046	-372.041218	488.330372	444.349579	-360.815973	397.975402	411.046968	-317.728765	386.363534	385.153994	-436.531521	-214.843552	944.559479	-230.697951	-9.302327	80.787527	-433.430777	-9.254690	80.610301	-32.996510	
501	2.5050	545.068408	1376.215406	-145.985790	449.161047	1400.656852	-428.952786	421.941427	1460.905387	-268.034442	448.507254	1289.250417	-280.407340	548.459192	1176.984446	69.129191	734.565932	992.817457	-26.399841	487.922635	1144.339033	-539.701254	727.138111	983.071168	-426.286781	-117.481626	1221.123580	-195.234441	40.763542	1255.060641	-375.299611	69.916426	1226.210370	-17.261885	65.001479	1184.672298	-346.492403	79.762256	1158.581639	-61.956965	-81.844597	1264.306929	-140.283125	-82.693690	1272.631583	-221.725179	-6.828314	1115.659867	-6.778638	-0.962142	1166.065881	-406.966203	103.874606	994.988684	-7.513851	186.646086	963.161036	-13.131776	241.437462	898.133182	-24.211868	207.004240	992.295624	-23.043943	320.796124	799.212328	-59.831722	312.401739	787.935834	-182.320851	233.145641	656.593532	-35.121998	202.872544	576.831717	-52.714102	132.169251	519.639534	-53.310397	225.560111	564.222386	-80.429938	44.635722	423.966089	-73.457812	70.866828	421.034365	-156.035482	-27.330521	420.351602	-109.130787	210.311207	217.509133	-120.761403	111.777404	280.626271	-49.504414	146.072158	271.418363	-159.209122	119.338041	1058.590634	-430.518102	198.478669	1024.005423	-430.010567	220.476313	1051.221673	-418.473926	251.369820	951.785161	-426.286334	362.732036	873.915490	-406.441599	359.207334	854.604414	-284.712833	319.086898	706.646225	-440.227619	321.835524	622.751208	-424.829186	280.999705	541.815111	-426.354317	350.477165	618.019782	-397.892109	249.365890	415.460101	-415.469740	271.149107	435.603812	-317.939247	194.861249	344.739068	-373.099296	490.071857	439.239772	-360.517277	399.602834	405.715388	-317.901732	388.605740	379.796340	-436.644682	-214.819768	944.552401	-230.730555	-9.293760	80.778045	-433.428480	-9.247300	80.605986	-32.992961	
502	2.5100	546.440221	1376.136698	-145.867347	450.744739	1400.567621	-428.936042	423.406347	1460.701249	-268.072146	450.131551	1289.104563	-280.371908	548.914513	1176.987191	69.301137	734.692441	992.828946	-25.987874	488.280436	1144.210574	-540.575799	726.789347	983.205886	-426.645735	-116.107768	1221.237766	-192.128289	44.723565	1255.821607	-380.402206	70.593854	1226.218815	-18.078754	66.509716	1184.040184	-347.284098	80.424384	1158.553702	-62.659858	-80.952454	1264.831248	-141.361857	-81.311388	1272.920279	-223.037017	-6.478678	1116.385153	-7.278109	1.577305	1164.551688	-407.790630	104.454698	996.309519	-7.205842	187.484266	964.881466	-12.414115	242.729135	900.210569	-23.195927	207.679718	993.796155	-22.898881	322.584114	801.609481	-58.495596	314.798035	790.430234	-181.244740	233.627664	659.914500	-34.394428	202.634401	580.613714	-52.121833	131.239784	524.086100	-53.109328	225.175271	567.699049	-79.867051	42.849256	429.343177	-73.620071	68.830654	426.521557	-156.239174	-29.281721	425.667818	-109.291573	208.494874	223.134817	-120.907386	109.940942	286.184771	-49.689178	142.468476	278.056957	-161.343189	120.259072	1056.021458	-430.529412	198.994864	1020.640974	-429.831319	221.292722	1047.676276	-418.357341	251.075670	947.880228	-425.781327	361.484894	869.150070	-405.315274	357.452093	849.434881	-283.258592	319.014618	701.519607	-439.846442	322.336390	617.665474	-424.514783	282.245038	536.447525	-426.432508	351.007539	613.042004	-397.497739	251.225298	409.843125	-416.084925	274.519699	429.627521	-317.234419	196.720066	338.975599	-374.010927	491.869420	433.756830	-360.082981	401.125971	400.323788	-318.061396	390.663938	374.357946	-436.797596	-214.610159	944.528951	-231.076554	-9.286015	80.761362	-433.422031	-9.238343	80.615620	-32.999299	
503	2.5150	547.882652	1376.072707	-145.575742	452.344425	1400.582434	-428.782722	424.875974	1460.578270	-268.095811	451.749408	1289.035860	-280.286775	549.497550	1177.039359	69.290595	734.802450	992.803978	-25.627693	488.477589	1144.361638	-541.715221	726.433516	983.341705	-426.930609	-115.173072	1221.814637	-198.298576	46.490245	1255.172049	-381.192257	71.314359	1226.238693	-19.016064	67.879731	1183.504577	-347.885839	81.450713	1158.643614	-63.142546	-79.855147	1265.301690	-142.577571	-79.949417	1273.101399	-224.369640	-6.061982	1117.136209	-7.775795	2.886327	1163.457611	-408.687226	105.048476	997.543952	-6.927505	188.351251	966.804647	-11.779558	244.113727	902.428560	-22.281261	208.483900	996.040507	-22.034121	324.465040	804.142736	-57.299746	317.232958	792.996147	-180.105582	234.247918	663.085333	-33.698115	200.021026	583.547124	-52.876218	130.386500	528.607764	-52.945778	224.843235	571.226817	-79.326272	41.073185	434.760290	-73.911315	67.003092	431.745846	-156.647061	-31.188208	431.062027	-109.757181	206.006475	227.817231	-121.352792	108.115756	291.659975	-49.822422	138.660155	284.031609	-163.588194	121.057196	1053.516060	-430.811883	199.428445	1017.242919	-429.697950	221.964173	1044.089894	-418.335130	250.706137	943.839149	-425.117579	360.084243	864.326788	-404.222033	355.939444	844.393112	-281.424798	318.740709	696.469188	-439.428870	322.934202	612.313305	-423.866570	283.187565	530.852181	-426.187374	351.080719	608.341520	-397.684085	252.967395	404.219252	-416.597726	275.946995	424.221103	-317.568571	198.403159	333.291848	-374.745345	493.491711	428.361410	-359.853862	402.540062	394.876568	-318.207003	392.498143	368.925852	-436.924124	-214.536177	944.564408	-231.109962	-9.287813	80.760298	-433.432838	-9.234146	80.594969	-33.009427	
